<?xml version="1.0" encoding="UTF-8" standalone="no"?>
<!-- Created with Inkscape (http://www.inkscape.org/) -->

<svg
   xmlns:dc="http://purl.org/dc/elements/1.1/"
   xmlns:cc="http://creativecommons.org/ns#"
   xmlns:rdf="http://www.w3.org/1999/02/22-rdf-syntax-ns#"
   xmlns:svg="http://www.w3.org/2000/svg"
   xmlns="http://www.w3.org/2000/svg"
   xmlns:sodipodi="http://sodipodi.sourceforge.net/DTD/sodipodi-0.dtd"
   xmlns:inkscape="http://www.inkscape.org/namespaces/inkscape"
   id="svg3336"
   version="1.1"
   inkscape:version="0.91 r13725"
   xml:space="preserve"
   width="318.89999"
   height="177.16251"
   viewBox="0 0 318.89999 177.16251"
   sodipodi:docname="pearwhite-full.svg"><metadata
     id="metadata3342"><rdf:RDF><cc:Work
         rdf:about=""><dc:format>image/svg+xml</dc:format><dc:type
           rdf:resource="http://purl.org/dc/dcmitype/StillImage" /><dc:title></dc:title></cc:Work></rdf:RDF></metadata><defs
     id="defs3340"><clipPath
       clipPathUnits="userSpaceOnUse"
       id="clipPath3354"><path
         d="m 0,141.73 255.12,0 L 255.12,0 0,0 0,141.73 Z"
         id="path3356"
         inkscape:connector-curvature="0" /></clipPath><clipPath
       clipPathUnits="userSpaceOnUse"
       id="clipPath3406"><path
         d="m 18.231,73.544 c -1.262,-1.58 -2.701,-3.039 -4.04,-4.561 l 0,0 c -0.683,-0.779 4.521,-3.142 5.059,-3.364 l 0,0 c 4.763,-1.969 9.966,-2.281 14.993,-3.187 l 0,0 c 5.293,-0.954 10.555,-2.125 15.698,-3.707 l 0,0 c 7.68,-2.504 15.26,-5.836 21.734,-10.731 l 0,0 c 1.497,-1.131 2.929,-2.349 4.268,-3.664 l 0,0 c 1.857,6.719 0.58,13.61 -2.769,19.53 l 0,0 C 54.439,77.872 26.099,79.75 26.099,79.75 l 0,0 c -1.123,0 -2.214,0.135 -3.265,0.371 l 0,0 c -1.068,-2.402 -2.93,-4.482 -4.603,-6.577"
         id="path3408"
         inkscape:connector-curvature="0" /></clipPath><linearGradient
       x1="0"
       y1="0"
       x2="1"
       y2="0"
       gradientUnits="userSpaceOnUse"
       gradientTransform="matrix(62.668716,0,0,-62.668716,14.129595,62.225369)"
       spreadMethod="pad"
       id="linearGradient3418"><stop
         style="stop-opacity:0.29999237;stop-color:#ffffff"
         offset="0"
         id="stop3420" /><stop
         style="stop-opacity:0;stop-color:#ffffff"
         offset="0.41619325"
         id="stop3422" /><stop
         style="stop-opacity:0;stop-color:#ffffff"
         offset="1"
         id="stop3424" /></linearGradient><mask
       maskUnits="userSpaceOnUse"
       x="0"
       y="0"
       width="1"
       height="1"
       id="mask3426"><g
         id="g3428"><g
           id="g3430"><g
             id="g3432"><g
               id="g3434"><path
                 d="m -32768,32767 65535,0 0,-65535 -65535,0 0,65535 z"
                 style="fill:url(#linearGradient3418);stroke:none"
                 id="path3436"
                 inkscape:connector-curvature="0" /></g></g></g></g></mask><linearGradient
       x1="0"
       y1="0"
       x2="1"
       y2="0"
       gradientUnits="userSpaceOnUse"
       gradientTransform="matrix(62.668716,0,0,-62.668716,14.129595,62.225369)"
       spreadMethod="pad"
       id="linearGradient3442"><stop
         style="stop-opacity:1;stop-color:#ffffff"
         offset="0"
         id="stop3444" /><stop
         style="stop-opacity:1;stop-color:#ffffff"
         offset="0.41619325"
         id="stop3446" /><stop
         style="stop-opacity:1;stop-color:#ffffff"
         offset="1"
         id="stop3448" /></linearGradient><clipPath
       clipPathUnits="userSpaceOnUse"
       id="clipPath3456"><path
         d="m 10.402,38.275 c 0.862,-1.436 1.834,-2.743 2.86,-3.985 l 0,0 c 4.274,-5.172 9.88,-8.742 16.344,-11.15 l 0,0 c 1.961,-0.731 3.991,-0.638 5.988,-0.066 l 0,0 c 1.011,0.29 2.008,0.63 3.001,0.976 l 0,0 c 2.144,0.746 4.283,0.741 6.426,0.002 l 0,0 c 0.699,-0.243 1.409,-0.456 2.106,-0.705 l 0,0 c 2.631,-0.941 5.211,-0.884 7.797,0.099 l 0,0 c 0.138,0.052 0.275,0.095 0.413,0.152 l 0,0 c 4.424,1.851 8.431,4.343 11.996,7.534 l 0,0 c -6.151,5.464 -13.576,9.35 -21.257,12.19 l 0,0 c -6.755,2.498 -13.792,4.224 -20.898,5.371 l 0,0 c -3.075,0.496 -6.177,0.801 -9.281,1.045 l 0,0 c -1.12,0.088 -2.266,0.127 -3.411,0.196 l 0,0 c -1.937,0.115 -3.873,0.311 -5.682,0.958 l 0,0 C 6.471,46.56 8.213,41.922 10.402,38.275"
         id="path3458"
         inkscape:connector-curvature="0" /></clipPath><linearGradient
       x1="0"
       y1="0"
       x2="1"
       y2="0"
       gradientUnits="userSpaceOnUse"
       gradientTransform="matrix(60.570316,0,0,-60.570316,6.7630019,36.755123)"
       spreadMethod="pad"
       id="linearGradient3468"><stop
         style="stop-opacity:0.29999237;stop-color:#ffffff"
         offset="0"
         id="stop3470" /><stop
         style="stop-opacity:0;stop-color:#ffffff"
         offset="0.41619325"
         id="stop3472" /><stop
         style="stop-opacity:0;stop-color:#ffffff"
         offset="1"
         id="stop3474" /></linearGradient><mask
       maskUnits="userSpaceOnUse"
       x="0"
       y="0"
       width="1"
       height="1"
       id="mask3476"><g
         id="g3478"><g
           id="g3480"><g
             id="g3482"><g
               id="g3484"><path
                 d="m -32768,32767 65535,0 0,-65535 -65535,0 0,65535 z"
                 style="fill:url(#linearGradient3468);stroke:none"
                 id="path3486"
                 inkscape:connector-curvature="0" /></g></g></g></g></mask><linearGradient
       x1="0"
       y1="0"
       x2="1"
       y2="0"
       gradientUnits="userSpaceOnUse"
       gradientTransform="matrix(60.570316,0,0,-60.570316,6.7630019,36.755123)"
       spreadMethod="pad"
       id="linearGradient3492"><stop
         style="stop-opacity:1;stop-color:#ffffff"
         offset="0"
         id="stop3494" /><stop
         style="stop-opacity:1;stop-color:#ffffff"
         offset="0.41619325"
         id="stop3496" /><stop
         style="stop-opacity:1;stop-color:#ffffff"
         offset="1"
         id="stop3498" /></linearGradient><clipPath
       clipPathUnits="userSpaceOnUse"
       id="clipPath3506"><path
         d="m 35.946,104.815 c -2.402,-1.325 -4.33,-3.444 -4.33,-6.318 l 0,0 c 0,-3.587 2.908,-6.495 6.495,-6.495 l 0,0 c 0,0 16.122,-1.473 23.526,-9.501 l 0,0 c 0,0.14 -0.014,0.274 -0.01,0.414 l 0,0 c 0,0.016 -0.002,0.031 -0.002,0.046 l 0,0 c 0.086,3.516 -0.334,7.015 -1.339,10.411 l 0,0 c -1.381,4.667 -3.66,8.766 -8.03,11.222 l 0,0 c -0.214,0.119 -0.434,0.231 -0.656,0.336 l 0,0 c -1.903,0.901 -3.798,1.651 -5.855,1.919 l 0,0 c -0.442,0.058 -0.892,0.094 -1.35,0.103 l 0,0 c -0.107,0.003 -0.215,0.004 -0.322,0.004 l 0,0 c -2.809,0 -5.674,-0.788 -8.127,-2.141"
         id="path3508"
         inkscape:connector-curvature="0" /></clipPath><linearGradient
       x1="0"
       y1="0"
       x2="1"
       y2="0"
       gradientUnits="userSpaceOnUse"
       gradientTransform="matrix(-4.752841,26.9547,26.9547,4.752841,48.773178,80.233078)"
       spreadMethod="pad"
       id="linearGradient3518"><stop
         style="stop-opacity:0;stop-color:#ffffff"
         offset="0"
         id="stop3520" /><stop
         style="stop-opacity:0;stop-color:#ffffff"
         offset="0.24220035"
         id="stop3522" /><stop
         style="stop-opacity:0.29999237;stop-color:#ffffff"
         offset="1"
         id="stop3524" /></linearGradient><mask
       maskUnits="userSpaceOnUse"
       x="0"
       y="0"
       width="1"
       height="1"
       id="mask3526"><g
         id="g3528"><g
           id="g3530"><g
             id="g3532"><g
               id="g3534"><path
                 d="m -32768,32767 65535,0 0,-65535 -65535,0 0,65535 z"
                 style="fill:url(#linearGradient3518);stroke:none"
                 id="path3536"
                 inkscape:connector-curvature="0" /></g></g></g></g></mask><linearGradient
       x1="0"
       y1="0"
       x2="1"
       y2="0"
       gradientUnits="userSpaceOnUse"
       gradientTransform="matrix(-4.752841,26.9547,26.9547,4.752841,48.773178,80.233078)"
       spreadMethod="pad"
       id="linearGradient3542"><stop
         style="stop-opacity:1;stop-color:#ffffff"
         offset="0"
         id="stop3544" /><stop
         style="stop-opacity:1;stop-color:#ffffff"
         offset="0.24220035"
         id="stop3546" /><stop
         style="stop-opacity:1;stop-color:#ffffff"
         offset="1"
         id="stop3548" /></linearGradient><filter
       style="color-interpolation-filters:sRGB;"
       inkscape:label="Fade to Black or White"
       id="filter3750"><feColorMatrix
         values="0 0 0 0 1 0 0 0 0 1 0 0 0 0 1 0 0 0 1 0"
         id="feColorMatrix3752" /></filter><filter
       style="color-interpolation-filters:sRGB;"
       inkscape:label="Fade to Black or White"
       id="filter3754"><feColorMatrix
         values="0 0 0 0 1 0 0 0 0 1 0 0 0 0 1 0 0 0 1 0"
         id="feColorMatrix3756" /></filter><filter
       style="color-interpolation-filters:sRGB;"
       inkscape:label="Fade to Black or White"
       id="filter3758"><feColorMatrix
         values="0 0 0 0 1 0 0 0 0 1 0 0 0 0 1 0 0 0 1 0"
         id="feColorMatrix3760" /></filter><filter
       style="color-interpolation-filters:sRGB;"
       inkscape:label="Fade to Black or White"
       id="filter3762"><feColorMatrix
         values="0 0 0 0 1 0 0 0 0 1 0 0 0 0 1 0 0 0 1 0"
         id="feColorMatrix3764" /></filter><filter
       style="color-interpolation-filters:sRGB;"
       inkscape:label="Fade to Black or White"
       id="filter3766"><feColorMatrix
         values="0 0 0 0 1 0 0 0 0 1 0 0 0 0 1 0 0 0 1 0"
         id="feColorMatrix3768" /></filter></defs><sodipodi:namedview
     pagecolor="#ffffff"
     bordercolor="#666666"
     borderopacity="1"
     objecttolerance="10"
     gridtolerance="10"
     guidetolerance="10"
     inkscape:pageopacity="0"
     inkscape:pageshadow="2"
     inkscape:window-width="1920"
     inkscape:window-height="1017"
     id="namedview3338"
     showgrid="false"
     inkscape:zoom="4.7865658"
     inkscape:cx="159.45"
     inkscape:cy="88.581253"
     inkscape:window-x="-4"
     inkscape:window-y="-4"
     inkscape:window-maximized="1"
     inkscape:current-layer="g3344" /><g
     id="g3344"
     inkscape:groupmode="layer"
     inkscape:label="Pear Logo vector"
     transform="matrix(1.25,0,0,-1.25,0,177.1625)"><text
       transform="matrix(1,0,0,-1,105.5195,31.7246)"
       style="font-style:italic;font-variant:normal;font-weight:normal;font-stretch:normal;font-size:11.59640026px;font-family:'Century Gothic';-inkscape-font-specification:CenturyGothic-Italic;writing-mode:lr-tb;fill:#bdb235;fill-opacity:1;fill-rule:nonzero;stroke:none;filter:url(#filter3750)"
       id="text3346"><tspan
         x="0 6.95784 9.3698912 17.383003 24.54958 27.854553 32.69025 38.558029 45.724606 53.737717 57.321007 64.951439 68.256409 73.09211 80.223892 87.854324 98.824524 106.45495 117.42515 125.42666 133.0571 136.64038"
         y="0"
         sodipodi:role="line"
         id="tspan3348">Plan. Share. Remember.</tspan></text>
<g
       id="g3350"
       style="filter:url(#filter3754)"><g
         id="g3352"
         clip-path="url(#clipPath3354)"><g
           id="g3358"
           transform="translate(96.465,70.8487)"><path
             d="m 0,0 c 0.051,-2.01 0.464,-3.865 1.237,-5.567 0.773,-1.7 1.778,-3.169 3.015,-4.406 1.237,-1.237 2.679,-2.203 4.33,-2.899 1.648,-0.696 3.401,-1.044 5.257,-1.044 1.905,0 3.71,0.36 5.411,1.083 1.701,0.721 3.182,1.712 4.445,2.976 1.262,1.262 2.255,2.745 2.977,4.445 0.721,1.701 1.082,3.504 1.082,5.412 0,1.906 -0.361,3.697 -1.082,5.373 -0.722,1.674 -1.715,3.143 -2.977,4.406 -1.263,1.263 -2.744,2.255 -4.445,2.977 -1.701,0.721 -3.506,1.082 -5.411,1.082 -1.856,0 -3.609,-0.348 -5.257,-1.044 C 6.931,12.099 5.489,11.158 4.252,9.973 3.015,8.787 2.01,7.383 1.237,5.759 0.464,4.136 0.051,2.396 0,0.541 L 0,0 Z m -4.793,16.389 c 0,0.67 0.232,1.237 0.695,1.701 0.465,0.464 1.031,0.696 1.702,0.696 0.669,0 1.236,-0.232 1.7,-0.696 C -0.232,17.626 0,17.059 0,16.389 l 0,-3.865 c 1.701,1.906 3.736,3.388 6.108,4.445 2.37,1.056 4.947,1.585 7.731,1.585 2.628,0 5.075,-0.49 7.344,-1.469 2.267,-0.98 4.239,-2.319 5.914,-4.02 1.674,-1.701 3.002,-3.672 3.981,-5.914 0.979,-2.242 1.469,-4.626 1.469,-7.151 0,-2.578 -0.502,-5 -1.508,-7.267 -1.004,-2.269 -2.357,-4.252 -4.058,-5.953 -1.701,-1.701 -3.673,-3.053 -5.914,-4.059 -2.242,-1.005 -4.6,-1.507 -7.074,-1.507 -2.887,0.102 -5.515,0.837 -7.885,2.203 -2.372,1.365 -4.407,2.977 -6.108,4.832 l 0,-24.923 c 0,-0.67 -0.232,-1.237 -0.696,-1.701 -0.464,-0.464 -1.031,-0.696 -1.7,-0.696 -0.671,0 -1.237,0.232 -1.702,0.696 -0.463,0.464 -0.695,1.031 -0.695,1.701 l 0,53.063 z"
             style="fill:#4f4c4d;fill-opacity:1;fill-rule:nonzero;stroke:none"
             id="path3360"
             inkscape:connector-curvature="0" /></g><g
           id="g3362"
           transform="translate(167.5123,73.2451)"><path
             d="m 0,0 c -0.309,1.597 -0.877,3.092 -1.701,4.484 -0.825,1.392 -1.843,2.59 -3.053,3.595 -1.212,1.005 -2.578,1.804 -4.098,2.396 -1.521,0.592 -3.131,0.889 -4.832,0.889 -1.7,0 -3.312,-0.297 -4.832,-0.889 -1.52,-0.592 -2.886,-1.391 -4.097,-2.396 C -23.824,7.074 -24.829,5.876 -25.628,4.484 -26.428,3.092 -26.981,1.597 -27.29,0 L 0,0 Z m -27.367,-4.793 c 0.257,-1.65 0.798,-3.183 1.623,-4.6 0.824,-1.418 1.842,-2.642 3.054,-3.672 1.21,-1.032 2.59,-1.844 4.136,-2.435 1.546,-0.593 3.17,-0.889 4.87,-0.889 1.906,0 3.684,0.348 5.335,1.043 1.649,0.696 3.118,1.662 4.406,2.899 0.464,0.464 1.031,0.696 1.701,0.696 0.669,0 1.237,-0.232 1.701,-0.696 0.464,-0.464 0.696,-1.031 0.696,-1.701 0,-0.67 -0.232,-1.236 -0.696,-1.7 -1.701,-1.908 -3.621,-3.26 -5.76,-4.059 -2.139,-0.8 -4.6,-1.198 -7.383,-1.198 -2.577,0 -4.986,0.463 -7.228,1.391 -2.242,0.928 -4.213,2.216 -5.914,3.866 -1.701,1.649 -3.042,3.607 -4.02,5.875 -0.98,2.267 -1.469,4.742 -1.469,7.422 0,2.576 0.476,4.986 1.43,7.228 0.953,2.242 2.267,4.2 3.943,5.876 1.674,1.674 3.659,3.015 5.953,4.02 2.292,1.005 4.78,1.558 7.46,1.662 2.422,0 4.754,-0.491 6.997,-1.469 2.241,-0.98 4.213,-2.319 5.914,-4.02 C 1.082,9.045 2.447,7.074 3.479,4.832 4.51,2.59 5.025,0.18 5.025,-2.396 5.025,-3.17 4.766,-3.763 4.252,-4.174 3.736,-4.588 3.195,-4.793 2.629,-4.793 l -29.996,0 z"
             style="fill:#4f4c4d;fill-opacity:1;fill-rule:nonzero;stroke:none"
             id="path3364"
             inkscape:connector-curvature="0" /></g><g
           id="g3366"
           transform="translate(211.5787,70.6939)"><path
             d="m 0,0 c 0,1.906 -0.362,3.711 -1.083,5.412 -0.722,1.7 -1.714,3.181 -2.976,4.445 -1.264,1.262 -2.745,2.254 -4.445,2.976 -1.701,0.721 -3.506,1.082 -5.412,1.082 -1.908,0 -3.699,-0.361 -5.373,-1.082 -1.675,-0.722 -3.144,-1.714 -4.406,-2.976 -1.264,-1.264 -2.256,-2.745 -2.977,-4.445 -0.722,-1.701 -1.082,-3.506 -1.082,-5.412 0,-1.908 0.36,-3.699 1.082,-5.373 0.721,-1.675 1.713,-3.144 2.977,-4.406 1.262,-1.264 2.731,-2.256 4.406,-2.977 1.674,-0.722 3.465,-1.082 5.373,-1.082 1.855,0 3.607,0.348 5.257,1.043 1.649,0.696 3.104,1.662 4.368,2.899 1.262,1.238 2.268,2.693 3.015,4.368 C -0.529,-3.854 -0.104,-2.01 0,0 m 0,-11.596 c -1.701,-1.908 -3.75,-3.544 -6.146,-4.91 -2.397,-1.365 -4.987,-2.048 -7.77,-2.048 -2.578,0 -4.987,0.464 -7.228,1.392 -2.243,0.927 -4.214,2.215 -5.914,3.865 -1.701,1.649 -3.042,3.607 -4.02,5.876 -0.98,2.266 -1.469,4.741 -1.469,7.421 0,2.576 0.476,5.012 1.43,7.306 0.953,2.292 2.267,4.29 3.942,5.991 1.675,1.701 3.66,3.041 5.953,4.02 2.293,0.978 4.78,1.469 7.461,1.469 2.474,0 4.832,-0.502 7.073,-1.507 2.242,-1.006 4.214,-2.358 5.915,-4.059 C 0.927,11.519 2.281,9.535 3.285,7.267 4.29,4.999 4.793,2.576 4.793,0 l 0,-16.312 c 0,-0.67 -0.232,-1.237 -0.696,-1.701 -0.464,-0.464 -1.031,-0.696 -1.701,-0.696 -0.67,0 -1.236,0.232 -1.701,0.696 C 0.232,-17.549 0,-16.982 0,-16.312 l 0,4.716 z"
             style="fill:#4f4c4d;fill-opacity:1;fill-rule:nonzero;stroke:none"
             id="path3368"
             inkscape:connector-curvature="0" /></g><g
           id="g3370"
           transform="translate(224.3346,87.2379)"><path
             d="m 0,0 c 0,0.669 0.232,1.237 0.696,1.701 0.464,0.464 1.03,0.696 1.7,0.696 0.67,0 1.237,-0.232 1.701,-0.696 C 4.561,1.237 4.793,0.669 4.793,0 l 0,-3.788 c 1.649,1.804 3.634,3.286 5.953,4.445 2.319,1.16 4.844,1.74 7.576,1.74 0.824,0 1.481,-0.232 1.972,-0.696 0.488,-0.464 0.734,-1.032 0.734,-1.701 0,-0.67 -0.246,-1.237 -0.734,-1.701 -0.491,-0.463 -1.148,-0.695 -1.972,-0.695 -1.855,0 -3.582,-0.362 -5.18,-1.083 C 11.544,-4.201 10.139,-5.18 8.929,-6.417 7.718,-7.654 6.738,-9.072 5.991,-10.668 5.244,-12.266 4.844,-13.942 4.793,-15.693 l 0,-17.086 c 0,-0.67 -0.232,-1.237 -0.696,-1.701 -0.464,-0.463 -1.031,-0.695 -1.701,-0.695 -0.67,0 -1.236,0.232 -1.7,0.695 C 0.232,-34.016 0,-33.449 0,-32.779 L 0,0 Z"
             style="fill:#4f4c4d;fill-opacity:1;fill-rule:nonzero;stroke:none"
             id="path3372"
             inkscape:connector-curvature="0" /></g><g
           id="g3374"
           transform="translate(61.5684,82.2845)"><path
             d="m 0,0 c -14.852,-7.388 -29.69,-10.42 -29.69,-10.42 -1.151,-0.13 -2.253,-0.39 -3.305,-0.746 -1.364,2.263 -1.145,0.744 -3.095,2.632 -1.47,1.424 -2.254,0.331 -2.614,2.325 -0.798,4.424 0.184,5.253 3.198,6.462 4.137,1.659 8.624,2.936 12.917,4.084 4.35,1.163 8.63,2.577 12.809,4.234 0.276,0.11 4.616,1.788 4.558,1.907 C -3.67,7.345 -2.048,3.636 -0.445,0.526 -0.429,0.495 0.001,0 0,0"
             style="fill:#8eb325;fill-opacity:1;fill-rule:nonzero;stroke:none"
             id="path3376"
             inkscape:connector-curvature="0" /></g><g
           id="g3378"
           transform="translate(75.943,44.3304)"><path
             d="m 0,0 c -13.175,-9.332 -59.19,-0.032 -59.19,-0.032 -1.086,-0.285 -2.106,-0.693 -3.063,-1.188 -1.644,2.051 -1.211,0.578 -3.361,2.179 -1.622,1.208 -2.214,0.019 -2.854,1.942 -0.383,1.151 -0.807,2.38 -0.674,3.611 0.31,2.875 3.952,3.55 6.266,3.949 3.869,0.668 7.823,0.366 11.715,0.11 1.539,-0.101 3.079,-0.209 4.618,-0.321 1.612,-0.117 3.223,-0.239 4.834,-0.362 1.64,-0.125 3.28,-0.251 4.92,-0.377 1.625,-0.124 3.249,-0.248 4.874,-0.369 1.567,-0.116 3.133,-0.229 4.7,-0.336 1.464,-0.099 2.928,-0.194 4.393,-0.278 1.319,-0.076 2.638,-0.144 3.957,-0.197 1.13,-0.046 2.26,-0.08 3.391,-0.092 0.898,-0.008 1.797,-0.004 2.694,0.039 0.623,0.031 1.254,0.072 1.867,0.194 0.253,0.051 0.522,0.111 0.748,0.243 0.249,0.146 4.17,2.397 4.096,2.507 C -4.117,8.336 -2.259,4.536 -0.261,1.68 -0.241,1.651 0.001,0 0,0"
             style="fill:#d6ce3e;fill-opacity:1;fill-rule:nonzero;stroke:none"
             id="path3380"
             inkscape:connector-curvature="0" /></g><g
           id="g3382"
           transform="translate(61.5684,82.2845)"><path
             d="m 0,0 c -14.852,-7.388 -29.69,-10.42 -29.69,-10.42 -1.151,-0.13 -2.253,-0.39 -3.305,-0.746 -1.364,2.263 -1.145,0.744 -3.095,2.632 -1.47,1.424 -2.254,0.331 -2.614,2.325 -0.798,4.424 0.184,5.253 3.198,6.462 4.137,1.659 8.624,2.936 12.917,4.084 4.35,1.163 8.63,2.577 12.809,4.234 0.276,0.11 4.616,1.788 4.558,1.907 C -3.67,7.345 -2.048,3.636 -0.445,0.526 -0.429,0.495 0.001,0 0,0"
             style="fill:#d6ce3e;fill-opacity:1;fill-rule:nonzero;stroke:none"
             id="path3384"
             inkscape:connector-curvature="0" /></g><g
           id="g3386"
           transform="translate(73.1744,63.8607)"><path
             d="m 0,0 c -18.735,14.012 -47.076,15.889 -47.076,15.889 -1.123,0 -2.213,0.135 -3.265,0.371 -1.068,-2.402 -2.929,-4.482 -4.602,-6.577 -1.262,-1.58 -2.701,-3.039 -4.04,-4.56 -0.684,-0.779 4.52,-3.142 5.059,-3.365 4.763,-1.969 9.966,-2.28 14.993,-3.186 5.293,-0.955 10.554,-2.125 15.698,-3.708 7.68,-2.503 15.26,-5.836 21.734,-10.73 1.496,-1.132 2.929,-2.35 4.268,-3.664 C 4.626,-12.812 3.349,-5.921 0,0"
             style="fill:#efe542;fill-opacity:1;fill-rule:nonzero;stroke:none"
             id="path3388"
             inkscape:connector-curvature="0" /></g><g
           id="g3390"
           transform="translate(12.4855,49.9335)"><path
             d="m 0,0 c -1.937,0.115 -3.872,0.312 -5.682,0.958 -0.332,-4.332 1.41,-8.969 3.599,-12.617 0.862,-1.436 1.834,-2.743 2.86,-3.984 4.273,-5.173 9.88,-8.743 16.344,-11.151 1.96,-0.73 3.99,-0.638 5.988,-0.065 1.01,0.289 2.007,0.63 3.001,0.975 2.144,0.746 4.282,0.742 6.425,0.002 0.7,-0.242 1.409,-0.455 2.106,-0.704 2.632,-0.942 5.212,-0.885 7.798,0.098 0.137,0.052 0.274,0.095 0.412,0.153 4.424,1.851 8.431,4.343 11.997,7.534 -6.152,5.463 -13.576,9.349 -21.257,12.19 -6.755,2.498 -13.792,4.223 -20.898,5.37 C 9.618,-0.745 6.516,-0.439 3.411,-0.196 2.291,-0.108 1.146,-0.068 0,0"
             style="fill:#efe542;fill-opacity:1;fill-rule:nonzero;stroke:none"
             id="path3392"
             inkscape:connector-curvature="0" /></g><g
           id="g3394"
           transform="translate(46.0397,111.9161)"><path
             d="M 0,0 C 0.445,1.667 1.03,3.269 1.94,4.782 3.291,7.027 5.042,9.034 7.036,10.732 8.058,9.06 9.03,7.471 10.023,5.849 4.162,2.403 0.907,-2.698 0.112,-9.229 l -1.47,-0.149 c 0,2.537 0.386,5.061 0.919,7.535 C -0.305,-1.221 -0.162,-0.606 0,0"
             style="fill:#351f17;fill-opacity:1;fill-rule:nonzero;stroke:none"
             id="path3396"
             inkscape:connector-curvature="0" /></g><g
           id="g3398"
           transform="translate(61.6262,82.9156)"><path
             d="m 0,0 c 0,0.015 -0.001,0.03 -0.001,0.045 0.086,3.516 -0.334,7.015 -1.34,10.412 -1.38,4.666 -3.659,8.765 -8.029,11.22 -0.215,0.121 -0.434,0.232 -0.656,0.337 -1.903,0.901 -3.799,1.651 -5.855,1.92 -0.442,0.057 -0.892,0.093 -1.35,0.103 -2.91,0.063 -5.902,-0.733 -8.449,-2.138 -2.402,-1.325 -4.331,-3.444 -4.331,-6.317 0,-3.588 2.909,-6.496 6.496,-6.496 0,0 16.122,-1.472 23.525,-9.5 C 0.01,-0.275 -0.003,-0.141 0,0"
             style="fill:#efe542;fill-opacity:1;fill-rule:nonzero;stroke:none"
             id="path3400"
             inkscape:connector-curvature="0" /></g></g></g><g
       id="g3402"
       style="filter:url(#filter3758)"><g
         id="g3404"
         clip-path="url(#clipPath3406)"><g
           id="g3410"><g
             id="g3412" /><g
             id="g3438"
             mask="url(#mask3426)"><g
               id="g3440"><path
                 d="m 18.231,73.544 c -1.262,-1.58 -2.701,-3.039 -4.04,-4.561 l 0,0 c -0.683,-0.779 4.521,-3.142 5.059,-3.364 l 0,0 c 4.763,-1.969 9.966,-2.281 14.993,-3.187 l 0,0 c 5.293,-0.954 10.555,-2.125 15.698,-3.707 l 0,0 c 7.68,-2.504 15.26,-5.836 21.734,-10.731 l 0,0 c 1.497,-1.131 2.929,-2.349 4.268,-3.664 l 0,0 c 1.857,6.719 0.58,13.61 -2.769,19.53 l 0,0 C 54.439,77.872 26.099,79.75 26.099,79.75 l 0,0 c -1.123,0 -2.214,0.135 -3.265,0.371 l 0,0 c -1.068,-2.402 -2.93,-4.482 -4.603,-6.577"
                 style="fill:url(#linearGradient3442);stroke:none"
                 id="path3450"
                 inkscape:connector-curvature="0" /></g></g></g></g></g><g
       id="g3452"
       style="filter:url(#filter3762)"><g
         id="g3454"
         clip-path="url(#clipPath3456)"><g
           id="g3460"><g
             id="g3462" /><g
             id="g3488"
             mask="url(#mask3476)"><g
               id="g3490"><path
                 d="m 10.402,38.275 c 0.862,-1.436 1.834,-2.743 2.86,-3.985 l 0,0 c 4.274,-5.172 9.88,-8.742 16.344,-11.15 l 0,0 c 1.961,-0.731 3.991,-0.638 5.988,-0.066 l 0,0 c 1.011,0.29 2.008,0.63 3.001,0.976 l 0,0 c 2.144,0.746 4.283,0.741 6.426,0.002 l 0,0 c 0.699,-0.243 1.409,-0.456 2.106,-0.705 l 0,0 c 2.631,-0.941 5.211,-0.884 7.797,0.099 l 0,0 c 0.138,0.052 0.275,0.095 0.413,0.152 l 0,0 c 4.424,1.851 8.431,4.343 11.996,7.534 l 0,0 c -6.151,5.464 -13.576,9.35 -21.257,12.19 l 0,0 c -6.755,2.498 -13.792,4.224 -20.898,5.371 l 0,0 c -3.075,0.496 -6.177,0.801 -9.281,1.045 l 0,0 c -1.12,0.088 -2.266,0.127 -3.411,0.196 l 0,0 c -1.937,0.115 -3.873,0.311 -5.682,0.958 l 0,0 C 6.471,46.56 8.213,41.922 10.402,38.275"
                 style="fill:url(#linearGradient3492);stroke:none"
                 id="path3500"
                 inkscape:connector-curvature="0" /></g></g></g></g></g><g
       id="g3502"
       style="filter:url(#filter3766)"><g
         id="g3504"
         clip-path="url(#clipPath3506)"><g
           id="g3510"><g
             id="g3512" /><g
             id="g3538"
             mask="url(#mask3526)"><g
               id="g3540"><path
                 d="m 35.946,104.815 c -2.402,-1.325 -4.33,-3.444 -4.33,-6.318 l 0,0 c 0,-3.587 2.908,-6.495 6.495,-6.495 l 0,0 c 0,0 16.122,-1.473 23.526,-9.501 l 0,0 c 0,0.14 -0.014,0.274 -0.01,0.414 l 0,0 c 0,0.016 -0.002,0.031 -0.002,0.046 l 0,0 c 0.086,3.516 -0.334,7.015 -1.339,10.411 l 0,0 c -1.381,4.667 -3.66,8.766 -8.03,11.222 l 0,0 c -0.214,0.119 -0.434,0.231 -0.656,0.336 l 0,0 c -1.903,0.901 -3.798,1.651 -5.855,1.919 l 0,0 c -0.442,0.058 -0.892,0.094 -1.35,0.103 l 0,0 c -0.107,0.003 -0.215,0.004 -0.322,0.004 l 0,0 c -2.809,0 -5.674,-0.788 -8.127,-2.141"
                 style="fill:url(#linearGradient3542);stroke:none"
                 id="path3550"
                 inkscape:connector-curvature="0" /></g></g></g></g></g></g></svg>